<svg width="717" height="931" viewBox="0 0 717 931" fill="none" xmlns="http://www.w3.org/2000/svg">
<path d="M714 561C737.641 332.628 610.5 33.5 394.992 0.999974C117.5 -8 23.7775 188.214 3.00003 484C-17.7775 779.786 68.0083 914.364 341.508 927.5C615.008 940.635 689 802.5 714 561Z" fill="url(#paint0_radial_9_28)"/>
<path d="M603.043 588.505C603.043 588.505 557.543 515.505 481.543 517.005C447.089 515.913 429.961 520.624 404.543 541.505C400.86 545.056 389.508 546.66 398.543 537.005C398.543 537.005 416.622 518.407 416.543 503.505C416.39 474.724 400.555 450.573 366.043 450.005C331.53 449.436 304.642 499.439 320.543 524.505C333.075 536.974 319.391 534.813 315.043 532.505C194.45 488.488 145.12 514.384 84.0428 635.005C75.2204 743.666 78.5724 796.06 142 864.5C205.73 933.266 329.287 929.876 418.5 925.5C533 919.884 554.957 885.495 592.957 828.995C621.639 783.32 634.043 747.505 634.043 717.505C634.043 687.505 631.627 636.243 603.043 588.505Z" fill="#9A44C9"/>
<path d="M166.776 778.37C200.893 720.87 268.701 667.001 361.776 672.37C454.973 677.747 544.276 736.37 544.276 812.37C544.276 888.37 539.276 906.37 355.776 914.37C144.776 907.37 134.481 844.557 166.776 778.37Z" fill="#E59ACF"/>
<path d="M360.776 817.87C365.057 817.192 499.115 834.065 524.276 885.37C531.199 899.701 478.276 930.87 353.276 930.87C228.276 930.87 163.276 878.25 177.776 860.37C223.5 803.985 356.494 818.548 360.776 817.87Z" fill="#E0CDD6"/>
<path d="M164.943 633.798C164.943 633.798 107.676 562.551 170.274 630.075C232.871 697.599 277.651 720.574 365.274 726.575C464.384 728.134 503.205 702.511 558.274 639.575C520.494 704.255 453.106 757.243 364.443 757.798C272.712 758.372 205.742 708.782 164.943 633.798Z" fill="#571A7F"/>
<path d="M501 113.667C501 76.7252 490.578 43.9097 444.397 33.451C398.217 22.9924 366.592 71.3565 371.502 105.201C376.411 139.045 401.544 177.515 440.283 176.995C479.021 176.474 501 155.358 501 113.667Z" fill="#DCDCDD"/>
<ellipse cx="536.988" cy="634.021" rx="3.73205" ry="2.48803" transform="rotate(30 536.988 634.021)" fill="#5B1793"/>
<ellipse cx="544.855" cy="600.751" rx="3.48205" ry="2.32137" transform="rotate(30 544.855 600.751)" fill="#5B1793"/>
<circle cx="544" cy="616" r="2" fill="#5B1793"/>
<ellipse cx="112.508" cy="458.5" rx="68" ry="20.5" fill="#8656DF"/>
<path d="M401.953 793.091C398.453 777.591 371.317 770.075 350.453 771.091C331.937 771.993 312.988 772.29 306.953 786.809C299.891 803.8 333.8 809.422 351.953 808.809C360.094 808.535 405.452 808.591 401.953 793.091Z" fill="#A0B6E5"/>
<path d="M112.492 634.505C70.537 642.423 31.4519 639.314 2 621L1 614L0 576.005V531.505C32.7448 512.898 62.4647 501.398 104.5 504.505C156.324 508.335 222.5 543.005 222.5 566.005C222.5 589.005 162.223 625.119 112.492 634.505Z" fill="#DADBDB"/>
<ellipse cx="403" cy="189.5" rx="13" ry="12.5" fill="#D9D9D9"/>
<ellipse cx="205.5" cy="400.5" rx="13.5" ry="12.5" fill="#8656DF"/>
<defs>
<radialGradient id="paint0_radial_9_28" cx="0" cy="0" r="1" gradientUnits="userSpaceOnUse" gradientTransform="translate(339.58 457.198) rotate(90) scale(471.198 360.58)">
<stop stop-color="#47289B"/>
<stop offset="1" stop-color="#2B1B78"/>
</radialGradient>
</defs>
</svg>
