<svg width="722" height="957" viewBox="0 0 722 957" fill="none" xmlns="http://www.w3.org/2000/svg">
<path d="M721.008 574C723.039 533.551 708.508 27.5 445.508 0C194.508 0 23.2859 213.214 2.50841 509C-18.2691 804.786 89.0082 928.364 362.508 941.5C636.008 954.635 708.508 823 721.008 574Z" fill="url(#paint0_radial_3_4)"/>
<path d="M602 612C602 612 556.5 539 480.5 540.5C446.047 539.408 428.918 544.119 403.5 565C399.817 568.551 388.465 570.155 397.5 560.5C397.5 560.5 415.579 541.903 415.5 527C415.347 498.219 399.512 474.069 365 473.5C330.488 472.931 303.599 522.934 319.5 548C332.032 560.47 318.349 558.308 314 556C193.407 511.984 144.078 537.879 83 658.5C74.1776 767.161 93.0722 814.811 156.5 883.251C220.23 952.016 337.787 955.876 427 951.5C521.928 946.844 556.5 907.5 594.5 851C623.181 805.325 633 771 633 741C633 711 630.584 659.738 602 612Z" fill="#9A44C9"/>
<path d="M176 805C210.117 747.5 277.925 693.63 371 699C464.197 704.377 553.5 763 553.5 839C553.5 915 548.5 933 365 941C154 934 143.705 871.187 176 805Z" fill="#E59ACF"/>
<path d="M369.999 843.5C374.281 842.822 508.338 859.694 533.5 911C540.423 925.33 487.5 956.5 362.5 956.5C237.5 956.5 172.5 903.88 186.999 886C232.723 829.614 365.718 844.178 369.999 843.5Z" fill="#E0CDD6"/>
<path d="M157.669 661.223C157.669 661.223 100.403 589.976 163 657.5C225.597 725.024 270.377 747.999 358 754C457.111 755.559 495.931 729.936 551 667C513.22 731.68 445.832 784.668 357.169 785.223C265.438 785.797 198.468 736.207 157.669 661.223Z" fill="#571A7F"/>
<path d="M564.008 133C564.008 98 552.508 66.909 501.549 57C450.59 47.091 415.693 92.9135 421.111 124.979C426.528 157.045 454.262 193.493 497.008 193C539.755 192.507 564.008 172.5 564.008 133Z" fill="#DCDCDD"/>
<ellipse cx="557.988" cy="648.021" rx="3.73205" ry="2.48803" transform="rotate(30 557.988 648.021)" fill="#5B1793"/>
<ellipse cx="565.855" cy="614.751" rx="3.48205" ry="2.32137" transform="rotate(30 565.855 614.751)" fill="#5B1793"/>
<circle cx="565" cy="630" r="2" fill="#5B1793"/>
<ellipse cx="133.508" cy="472.5" rx="68" ry="20.5" fill="#8656DF"/>
<path d="M403 812.281C399.5 796.781 372.364 789.265 351.5 790.281C332.984 791.183 314.035 791.48 308 806C300.938 822.99 334.847 828.613 353 828C361.141 827.725 406.5 827.781 403 812.281Z" fill="#A0B6E5"/>
<path d="M112.5 664.5C70.5452 672.418 33.4601 669.314 4.00821 651L3.00821 644L0.00820923 606V561.5C32.753 542.893 62.4729 531.393 104.508 534.5C156.332 538.33 222.508 573 222.508 596C222.508 619 162.231 655.114 112.5 664.5Z" fill="#DADBDB"/>
<ellipse cx="436" cy="187.5" rx="13" ry="12.5" fill="#D9D9D9"/>
<ellipse cx="226.5" cy="414.5" rx="13.5" ry="12.5" fill="#8656DF"/>
<defs>
<radialGradient id="paint0_radial_3_4" cx="0" cy="0" r="1" gradientUnits="userSpaceOnUse" gradientTransform="translate(360.58 471.198) rotate(90) scale(471.198 360.58)">
<stop stop-color="#47289B"/>
<stop offset="1" stop-color="#2B1B78"/>
</radialGradient>
</defs>
</svg>
