<svg width="840" height="840" viewBox="0 0 840 840" fill="none" xmlns="http://www.w3.org/2000/svg">
<path d="M418.223 79.613C610.147 58.3315 638.58 597.555 546.172 696.882C453.764 796.209 357.49 764.377 297.382 696.882C183.649 569.171 226.299 100.895 418.223 79.613Z" fill="#C38072"/>
<path d="M433.151 518C620.065 518 560.333 669.168 532.07 697.962C460.657 770.717 365.625 762.608 300.971 683.565C265.642 640.374 255.242 518 433.151 518Z" fill="#F4C092"/>
<path d="M431.146 620C558.973 620 510.295 727.402 502.161 731.389C459.552 752.275 374.334 745.313 345.928 724.428C336.459 717.466 303.318 620 431.146 620Z" fill="#FEFEEA"/>
<path d="M419.5 235C510.402 235 521.765 620 419.5 620C317.235 620 328.598 235 419.5 235Z" fill="#C38072"/>
<path d="M420.509 86C503.54 86 590.932 242.691 562.529 335.282C534.125 427.872 371.483 426.182 299.793 363.215C224.344 296.945 337.478 86 420.509 86Z" fill="#96615C"/>
<path d="M422 277.5C428.631 277.5 434.642 282.233 439.96 290.799C445.268 299.349 449.805 311.596 453.517 326.341C460.939 355.822 465.031 395.155 465.462 434.505C465.893 473.857 462.661 513.187 455.456 542.663C451.852 557.404 447.262 569.646 441.664 578.191C436.063 586.739 429.516 591.5 422 591.5C414.484 591.5 407.937 586.739 402.336 578.191C396.738 569.646 392.148 557.404 388.544 542.663C381.339 513.187 378.107 473.857 378.538 434.505C378.969 395.155 383.061 355.822 390.483 326.341C394.195 311.596 398.732 299.349 404.04 290.799C409.358 282.233 415.369 277.5 422 277.5Z" fill="#F6DFCD" stroke="#F6DFCD"/>
<path fill-rule="evenodd" clip-rule="evenodd" d="M513.678 163.703C487.311 117.802 456.214 96.8164 420.578 100.768C381.871 105.06 348.126 132.072 320.695 177.983C293.354 223.743 274.23 285.361 264.269 351.501C254.333 417.478 253.726 486.552 262.399 546.507C271.177 607.189 289.011 655.444 313.321 682.741C341.003 713.826 375.469 734.91 411.627 738.246C446.854 741.495 487.86 728.281 530.546 682.398C539.003 673.308 547.471 657.444 554.75 634.534C561.912 611.994 567.408 584.287 570.966 553.127C578.084 490.807 577.244 416.527 567.689 345.866C558.092 274.897 539.952 209.442 513.678 163.703ZM546.172 696.882C638.58 597.555 610.147 58.3315 418.223 79.613C226.299 100.895 183.649 569.171 297.382 696.882C357.49 764.377 453.764 796.209 546.172 696.882Z" fill="#76352D"/>
<path d="M264.085 215.92C341.55 195.034 387.848 216.886 355.635 264.655C341.55 285.541 289.357 284.753 250 271.617L264.085 215.92Z" fill="white"/>
<ellipse cx="575.5" cy="555.5" rx="28.5" ry="21.5" fill="#CCFDD9"/>
</svg>
