<svg width="740" height="740" viewBox="0 0 740 740" fill="none" xmlns="http://www.w3.org/2000/svg">
<g clip-path="url(#clip0_487_24)">
<path d="M740 0H0V740H740V0Z" fill="white"/>
<path d="M313.164 389.99C313.164 355.138 299.818 205.804 204.759 205.804C118.895 205.804 90.125 340.753 90.125 406.303C90.125 435.959 96.4154 534.44 216.029 538.287C308.122 541.25 313.164 458.352 313.164 389.99Z" fill="url(#paint0_linear_487_24)"/>
<path d="M234.269 422.761C122.898 422.761 77.222 532.204 216.918 532.204C336.297 532.204 281.872 422.761 234.269 422.761Z" fill="#FAB077"/>
<path d="M220.777 474.368C177.917 474.368 125.421 532.649 220.777 532.649C291.069 532.649 263.637 474.368 220.777 474.368Z" fill="#E9C6BC"/>
<path d="M202.089 203.432C112.518 213.342 54.0881 390.284 215.881 377.679C377.672 365.074 273.124 195.571 202.089 203.432Z" fill="url(#paint1_linear_487_24)" fill-opacity="0.5"/>
<path d="M221.975 313.318C164.845 313.318 171.44 466.36 229.363 466.36C296.016 466.36 279.106 313.318 221.975 313.318Z" fill="url(#paint2_linear_487_24)"/>
<path d="M223.667 332.003C184.202 332.003 188.758 450.641 228.771 450.641C274.813 450.641 263.132 332.003 223.667 332.003Z" fill="#F6DFCD"/>
<path fill-rule="evenodd" clip-rule="evenodd" d="M283.464 288.896C298.05 328.854 301.301 373.408 301.301 389.99C301.301 424.475 299.892 459.814 288.28 486.09C282.624 498.89 274.741 509.034 263.752 515.93C252.752 522.834 237.63 527.114 216.411 526.429C160.542 524.632 132.905 501.159 118.513 476.071C103.571 450.021 101.989 420.56 101.989 406.303C101.989 374.805 108.974 326.321 126.152 286.136C143.573 245.384 169.278 217.668 204.759 217.668C244.401 217.668 268.677 248.391 283.464 288.896ZM204.759 205.804C299.818 205.804 313.164 355.138 313.164 389.99C313.164 458.352 308.122 541.25 216.029 538.287C96.4154 534.44 90.125 435.959 90.125 406.303C90.125 340.753 118.895 205.804 204.759 205.804Z" fill="#270B0B"/>
<path d="M119.277 353.655C70.4887 348.328 73.8986 290.63 136.034 298.637C167.069 302.638 148.789 356.879 119.277 353.655Z" fill="url(#paint3_linear_487_24)"/>
<path d="M301.131 432.104C339.944 432.104 333.122 466.657 301.131 466.212C269.139 465.767 277.659 432.104 301.131 432.104Z" fill="#D9D9D9"/>
<path d="M301.131 432.104C339.944 432.104 333.122 466.657 301.131 466.212C269.139 465.767 277.659 432.104 301.131 432.104Z" fill="#CCFDD9"/>
<path d="M426.846 388.507C426.846 353.655 440.192 204.321 535.251 204.321C621.114 204.321 649.884 339.27 649.884 404.82C649.884 434.476 643.593 532.957 523.98 536.804C431.888 539.767 426.846 456.869 426.846 388.507Z" fill="url(#paint4_linear_487_24)"/>
<path d="M505.739 421.278C617.11 421.278 662.785 530.721 523.09 530.721C403.711 530.721 458.136 421.278 505.739 421.278Z" fill="#FAB077"/>
<path d="M519.235 472.885C562.092 472.885 614.589 531.166 519.232 531.166C448.942 531.166 476.374 472.885 519.235 472.885Z" fill="#E9C6BC"/>
<path d="M537.918 201.949C627.49 211.859 685.918 388.801 524.127 376.196C362.335 363.591 466.884 194.089 537.918 201.949Z" fill="url(#paint5_linear_487_24)" fill-opacity="0.5"/>
<path d="M518.032 311.835C575.162 311.835 568.566 464.877 510.644 464.877C443.994 464.877 460.903 311.835 518.032 311.835Z" fill="url(#paint6_linear_487_24)"/>
<path d="M516.342 330.521C555.807 330.521 551.251 449.158 511.238 449.158C465.195 449.158 476.874 330.521 516.342 330.521Z" fill="#F6DFCD"/>
<path fill-rule="evenodd" clip-rule="evenodd" d="M456.547 287.413C441.96 327.371 438.709 371.925 438.709 388.507C438.709 422.992 440.118 458.331 451.73 484.607C457.386 497.408 465.269 507.551 476.258 514.447C487.256 521.352 502.379 525.631 523.597 524.946C579.467 523.149 607.103 499.677 621.497 474.588C636.439 448.538 638.02 419.077 638.02 404.82C638.02 373.322 631.035 324.838 613.857 284.653C596.435 243.901 570.732 216.185 535.251 216.185C495.608 216.185 471.332 246.908 456.547 287.413ZM535.251 204.321C440.192 204.321 426.846 353.655 426.846 388.507C426.846 456.869 431.888 539.767 523.98 536.804C643.593 532.957 649.884 434.476 649.884 404.82C649.884 339.27 621.114 204.321 535.251 204.321Z" fill="#270B0B"/>
<path d="M445.827 352.172C397.037 346.845 400.448 289.147 462.584 297.154C493.62 301.155 475.338 355.396 445.827 352.172Z" fill="url(#paint7_linear_487_24)"/>
<path d="M627.681 430.621C666.493 430.621 659.671 465.174 627.681 464.729C595.687 464.284 604.208 430.621 627.681 430.621Z" fill="#D9D9D9"/>
<path d="M627.681 430.621C666.493 430.621 659.671 465.174 627.681 464.729C595.687 464.284 604.208 430.621 627.681 430.621Z" fill="#CCFDD9"/>
</g>
<defs>
<linearGradient id="paint0_linear_487_24" x1="188.449" y1="301.84" x2="188.253" y2="461.541" gradientUnits="userSpaceOnUse">
<stop offset="0.322917" stop-color="#5D2015"/>
<stop offset="1" stop-color="#CD6149"/>
</linearGradient>
<linearGradient id="paint1_linear_487_24" x1="215.629" y1="203.166" x2="215.629" y2="391.639" gradientUnits="userSpaceOnUse">
<stop offset="0.645833" stop-color="#2E0A08"/>
<stop offset="0.859375" stop-color="#120201"/>
</linearGradient>
<linearGradient id="paint2_linear_487_24" x1="219.479" y1="346.866" x2="217.6" y2="466.235" gradientUnits="userSpaceOnUse">
<stop stop-color="#5D2015"/>
<stop offset="1" stop-color="#CD6149"/>
</linearGradient>
<linearGradient id="paint3_linear_487_24" x1="122.514" y1="298.637" x2="122.514" y2="353.785" gradientUnits="userSpaceOnUse">
<stop stop-color="white"/>
<stop offset="0.671875" stop-color="white"/>
<stop offset="1" stop-color="white" stop-opacity="0.29"/>
</linearGradient>
<linearGradient id="paint4_linear_487_24" x1="551.56" y1="300.357" x2="551.756" y2="460.058" gradientUnits="userSpaceOnUse">
<stop offset="0.322917" stop-color="#5D2015"/>
<stop offset="1" stop-color="#CD6149"/>
</linearGradient>
<linearGradient id="paint5_linear_487_24" x1="524.379" y1="201.683" x2="524.379" y2="390.157" gradientUnits="userSpaceOnUse">
<stop offset="0.645833" stop-color="#2E0A08"/>
<stop offset="0.859375" stop-color="#120201"/>
</linearGradient>
<linearGradient id="paint6_linear_487_24" x1="512.56" y1="353.803" x2="513.02" y2="454.941" gradientUnits="userSpaceOnUse">
<stop stop-color="#5D2015"/>
<stop offset="1" stop-color="#CD6149"/>
</linearGradient>
<linearGradient id="paint7_linear_487_24" x1="449.062" y1="297.154" x2="449.062" y2="352.302" gradientUnits="userSpaceOnUse">
<stop stop-color="white"/>
<stop offset="0.671875" stop-color="white"/>
<stop offset="1" stop-color="white" stop-opacity="0.29"/>
</linearGradient>
<clipPath id="clip0_487_24">
<rect width="740" height="740" fill="white"/>
</clipPath>
</defs>
</svg>
