<svg width="640" height="640" viewBox="0 0 640 640" fill="none" xmlns="http://www.w3.org/2000/svg">
<rect width="640" height="640" fill="white"/>
<path d="M320.481 80C461.313 80 487.663 202.824 487.997 315.793C488.379 444.811 445.742 559 332.341 559C221.157 559 150 459.641 150 332.105C150 213.235 201.659 80 320.481 80Z" fill="#2B3453"/>
<path d="M329.641 322.237C418.596 331.129 479.383 383.002 467.522 430.43C454.094 484.125 421.849 548.835 322.228 549C222.608 549.165 184.472 458.899 171.003 411.163C154.695 353.361 240.685 313.345 329.641 322.237Z" fill="#8AD9DD"/>
<path d="M325.818 184.099C379.968 186.838 396 239.999 396 290.06C396 348.677 396 414 325.818 414C255.637 414 252.015 342.561 251.034 290.06C250.025 236.104 271.669 181.36 325.818 184.099Z" fill="#2B3453"/>
<path d="M325.019 238.065C360.496 239.862 371 274.745 371 307.594C371 346.057 360.899 385.897 325.019 386C290.455 386.099 276.665 342.044 276.022 307.594C275.361 272.189 289.542 236.267 325.019 238.065Z" fill="#121A27"/>
<path d="M412 299C443.5 303.404 462.219 333.599 466 368C446.5 356.255 437.5 356.255 418 368C433.324 345.579 429.311 333.349 412 299Z" fill="#8AD9DD"/>
<path d="M313.397 123.328C340.013 84.8164 394.942 103.771 421.341 123.328C461.266 152.903 465.086 198.869 449.436 220.195C432.477 243.306 363.672 229.975 345.928 220.195C316.246 203.836 286.78 161.839 313.397 123.328Z" fill="#567CA0"/>
<path d="M330.754 451.042C376.488 452.201 389 474.603 389 495.792C389 520.602 369.54 547.933 323.287 548C278.731 548.064 268.858 518.013 268.029 495.792C267.177 472.954 285.021 449.883 330.754 451.042Z" fill="#DDF5D3"/>
<path fill-rule="evenodd" clip-rule="evenodd" d="M390 466C392.98 474.073 392.612 480.095 404 488C397.33 474.585 393.834 470.332 390 466Z" fill="#DDF5D3"/>
<path fill-rule="evenodd" clip-rule="evenodd" d="M309.013 477.687C307.393 486.174 303.609 503.886 309.013 516.233C312.688 504.459 312.073 486.045 309.013 477.687Z" fill="white"/>
<path fill-rule="evenodd" clip-rule="evenodd" d="M350.524 477.687C348.904 486.174 345.12 503.886 350.524 516.233C354.199 504.459 353.584 486.045 350.524 477.687Z" fill="white"/>
<path d="M326.5 532.198C371.931 533.348 417 513 417 513C417 513 372.448 549.934 326.5 550C282.237 550.064 236 513 236 513C236 513 281.069 531.048 326.5 532.198Z" fill="#DDF5D3"/>
<path fill-rule="evenodd" clip-rule="evenodd" d="M398.434 113.696C378.818 102.004 353.483 94.8297 320.481 94.8297C267.735 94.8297 229.406 123.988 203.524 168.885C177.399 214.204 164.824 274.485 164.824 332.105C164.824 393.253 181.895 446.586 211.181 484.278C240.252 521.692 281.629 544.17 332.341 544.17C382.862 544.17 417.293 519.283 439.876 478.582C462.937 437.017 473.36 379.085 473.173 315.837C473.008 259.945 466.312 204.071 443.886 162.587C432.819 142.115 418.047 125.386 398.434 113.696ZM487.997 315.793C487.663 202.824 461.313 80 320.481 80C201.659 80 150 213.235 150 332.105C150 459.641 221.157 559 332.341 559C445.742 559 488.379 444.811 487.997 315.793Z" fill="#0B1925"/>
<path d="M443.419 416.303C450.747 399.716 487.67 425.711 487.67 425.711L474.212 450.252C474.212 450.252 436.173 432.705 443.419 416.303Z" fill="white"/>
</svg>
